<svg width="182" height="270" viewBox="0 0 182 270" fill="none" xmlns="http://www.w3.org/2000/svg">
<path fill-rule="evenodd" clip-rule="evenodd" d="M52.5565 1H180.557V189H164.148L163.133 189L52.5565 189V169H59.0565C59.8849 169 60.5565 168.328 60.5565 167.5C60.5565 166.672 59.8849 166 59.0565 166H52.5565V164H59.0565C59.8849 164 60.5565 163.328 60.5565 162.5C60.5565 161.672 59.8849 161 59.0565 161H52.5565V149H59.0565C59.8849 149 60.5565 148.328 60.5565 147.5C60.5565 146.672 59.8849 146 59.0565 146H52.5565V144H59.0565C59.8849 144 60.5565 143.328 60.5565 142.5C60.5565 141.672 59.8849 141 59.0565 141H52.5565V129H59.0565C59.8849 129 60.5565 128.328 60.5565 127.5C60.5565 126.672 59.8849 126 59.0565 126H52.5565V124H59.0565C59.8849 124 60.5565 123.328 60.5565 122.5C60.5565 121.672 59.8849 121 59.0565 121H52.5565V109H59.0565C59.8849 109 60.5565 108.328 60.5565 107.5C60.5565 106.672 59.8849 106 59.0565 106H52.5565V104H59.0565C59.8849 104 60.5565 103.328 60.5565 102.5C60.5565 101.672 59.8849 101 59.0565 101H52.5565V89H59.0565C59.8849 89 60.5565 88.3284 60.5565 87.5C60.5565 86.6716 59.8849 86 59.0565 86H52.5565V84H59.0565C59.8849 84 60.5565 83.3284 60.5565 82.5C60.5565 81.6716 59.8849 81 59.0565 81H52.5565V69H59.0565C59.8849 69 60.5565 68.3284 60.5565 67.5C60.5565 66.6716 59.8849 66 59.0565 66H52.5565V64H59.0565C59.8849 64 60.5565 63.3284 60.5565 62.5C60.5565 61.6716 59.8849 61 59.0565 61H52.5565V49H59.0565C59.8849 49 60.5565 48.3284 60.5565 47.5C60.5565 46.6716 59.8849 46 59.0565 46H52.5565V44H59.0565C59.8849 44 60.5565 43.3284 60.5565 42.5C60.5565 41.6716 59.8849 41 59.0565 41H52.5565V29H59.0565C59.8849 29 60.5565 28.3284 60.5565 27.5C60.5565 26.6716 59.8849 26 59.0565 26H52.5565V24H59.0565C59.8849 24 60.5565 23.3284 60.5565 22.5C60.5565 21.6716 59.8849 21 59.0565 21H52.5565V1ZM163.309 190H52.5565H51.5565V189V169H44.0565C43.2281 169 42.5565 168.328 42.5565 167.5C42.5565 166.672 43.2281 166 44.0565 166H51.5565V164H44.0565C43.2281 164 42.5565 163.328 42.5565 162.5C42.5565 161.672 43.2281 161 44.0565 161H51.5565V149H44.0565C43.2281 149 42.5565 148.328 42.5565 147.5C42.5565 146.672 43.2281 146 44.0565 146H51.5565V144H44.0565C43.2281 144 42.5565 143.328 42.5565 142.5C42.5565 141.672 43.2281 141 44.0565 141H51.5565V129H44.0565C43.2281 129 42.5565 128.328 42.5565 127.5C42.5565 126.672 43.2281 126 44.0565 126H51.5565V124H44.0565C43.2281 124 42.5565 123.328 42.5565 122.5C42.5565 121.672 43.2281 121 44.0565 121H51.5565V109H44.0565C43.2281 109 42.5565 108.328 42.5565 107.5C42.5565 106.672 43.2281 106 44.0565 106H51.5565V104H44.0565C43.2281 104 42.5565 103.328 42.5565 102.5C42.5565 101.672 43.2281 101 44.0565 101H51.5565V89H44.0565C43.2281 89 42.5565 88.3284 42.5565 87.5C42.5565 86.6716 43.2281 86 44.0565 86H51.5565V84H44.0565C43.2281 84 42.5565 83.3284 42.5565 82.5C42.5565 81.6716 43.2281 81 44.0565 81H51.5565V69H44.0565C43.2281 69 42.5565 68.3284 42.5565 67.5C42.5565 66.6716 43.2281 66 44.0565 66H51.5565V64H44.0565C43.2281 64 42.5565 63.3284 42.5565 62.5C42.5565 61.6716 43.2281 61 44.0565 61H51.5565V49H44.0565C43.2281 49 42.5565 48.3284 42.5565 47.5C42.5565 46.6716 43.2281 46 44.0565 46H51.5565V44H44.0565C43.2281 44 42.5565 43.3284 42.5565 42.5C42.5565 41.6716 43.2281 41 44.0565 41H51.5565V29H44.4735L6.13768 35.7598L9.61058 55.4558L16.0118 54.3271C16.8277 54.1833 17.6057 54.728 17.7496 55.5439C17.8934 56.3596 17.3486 57.1377 16.5328 57.2815L10.1316 58.4102L10.4789 60.3799L16.8801 59.2512C17.6959 59.1072 18.474 59.6521 18.6178 60.4678C18.7617 61.2837 18.2169 62.0618 17.4011 62.2056L10.9999 63.3342L13.0836 75.1519L19.4848 74.0232C20.3006 73.8794 21.0787 74.4241 21.2225 75.24C21.3664 76.0559 20.8216 76.8337 20.0058 76.9775L13.6046 78.1064L13.9519 80.0759L20.3531 78.9473C21.1689 78.8035 21.9469 79.3481 22.0908 80.1641C22.2346 80.98 21.6899 81.7578 20.874 81.9016L14.4728 83.0305L16.5565 94.8481L22.9577 93.7195C23.7737 93.5754 24.5516 94.1204 24.6955 94.936C24.8393 95.752 24.2945 96.53 23.4787 96.6738L17.0775 97.8025L17.4248 99.7722L23.826 98.6436C24.6418 98.4995 25.4199 99.0444 25.5637 99.8601C25.7076 100.676 25.1628 101.454 24.347 101.598L17.9458 102.727L20.0295 114.544L26.4308 113.416C27.2466 113.272 28.0246 113.816 28.1684 114.632C28.3124 115.448 27.7676 116.226 26.9518 116.37L20.5505 117.499L20.8978 119.468L27.2991 118.34C28.1149 118.196 28.8928 118.74 29.0367 119.556C29.1805 120.372 28.6358 121.15 27.8199 121.294L21.4187 122.423L23.5024 134.24L29.9038 133.112C30.7196 132.968 31.4975 133.513 31.6415 134.328C31.7853 135.144 31.2405 135.922 30.4247 136.066L24.0234 137.195L24.3707 139.165L30.772 138.036C31.5879 137.892 32.3658 138.437 32.5096 139.252C32.6535 140.068 32.1087 140.846 31.293 140.99L24.8917 142.119L26.9754 153.937L33.3767 152.808C34.1925 152.664 34.9706 153.209 35.1144 154.025C35.2583 154.84 34.7135 155.618 33.8977 155.762L27.4964 156.891L27.8437 158.861L34.245 157.732C35.0608 157.588 35.8387 158.133 35.9827 158.949C36.1264 159.764 35.5818 160.542 34.7659 160.686L28.3646 161.815L30.4485 173.633L36.8497 172.504C37.6655 172.36 38.4435 172.905 38.5874 173.721C38.7312 174.537 38.1864 175.315 37.3706 175.458L30.9693 176.587L31.3166 178.557L37.7179 177.428C38.5338 177.284 39.3118 177.829 39.4556 178.645C39.5995 179.461 39.0547 180.239 38.2389 180.383L31.8376 181.511L33.9214 193.329L40.3226 192.2C41.1384 192.056 41.9165 192.601 42.0603 193.417C42.2042 194.233 41.6594 195.011 40.8436 195.155L34.4424 196.283L34.7897 198.253L41.1909 197.124C42.0067 196.98 42.7847 197.525 42.9286 198.341C43.0724 199.157 42.5277 199.935 41.7118 200.079L35.3105 201.207L38.7836 220.904L164.839 198.677L163.309 190ZM42.7772 28.2837C42.6372 28.0557 42.5565 27.7871 42.5565 27.5C42.5565 26.6716 43.2281 26 44.0565 26H51.5565V24H44.0565C43.2281 24 42.5565 23.3284 42.5565 22.5C42.5565 21.6716 43.2281 21 44.0565 21H51.5565V1V0H52.5565H180.557H181.557V1V189V190H180.557H164.324L165.824 198.503L165.997 199.488L165.013 199.661L38.9571 221.888L37.9724 222.062L37.7987 221.077L34.3258 201.381L26.9397 202.683C26.1239 202.827 25.3458 202.282 25.202 201.467C25.0582 200.651 25.6029 199.873 26.4188 199.729L33.8048 198.427L33.4575 196.457L26.0714 197.759C25.2556 197.903 24.4776 197.358 24.3337 196.542C24.1899 195.727 24.7347 194.949 25.5505 194.805L32.9365 193.502L30.8528 181.685L23.4668 182.987C22.6509 183.131 21.8729 182.586 21.729 181.771C21.5852 180.955 22.13 180.177 22.9458 180.033L30.3319 178.73L29.9846 176.761L22.5985 178.063C21.7827 178.207 21.0046 177.662 20.8608 176.846C20.7169 176.031 21.2617 175.253 22.0775 175.109L29.4636 173.806L27.3799 161.989L19.9938 163.291C19.178 163.435 18.3999 162.89 18.2561 162.074C18.1122 161.259 18.657 160.48 19.4728 160.337L26.8589 159.034L26.5116 157.065L19.1255 158.367C18.3097 158.511 17.5317 157.966 17.3878 157.15C17.244 156.334 17.7887 155.556 18.6046 155.413L25.9906 154.11L23.9068 142.292L16.5209 143.595C15.7049 143.739 14.927 143.194 14.7831 142.378C14.6393 141.562 15.1841 140.784 15.9999 140.64L23.386 139.338L23.0387 137.368L15.6526 138.671C14.8368 138.815 14.0587 138.27 13.9149 137.454C13.771 136.638 14.3158 135.86 15.1316 135.716L22.5177 134.414L20.4339 122.596L13.0478 123.899C12.232 124.042 11.454 123.498 11.3102 122.682C11.1662 121.866 11.711 121.088 12.5268 120.944L19.9129 119.642L19.5657 117.672L12.1796 118.975C11.3638 119.119 10.5858 118.574 10.4419 117.758C10.2981 116.942 10.8428 116.164 11.6587 116.02L19.0447 114.718L16.9609 102.9L9.57494 104.203C8.75902 104.346 7.98106 103.802 7.83714 102.986C7.69335 102.17 8.23814 101.392 9.05394 101.248L16.44 99.9458L16.0926 97.9761L8.70665 99.2786C7.89085 99.4224 7.11278 98.8777 6.96898 98.0618C6.82506 97.2458 7.36986 96.468 8.18565 96.3242L15.5718 95.0217L13.488 83.2041L6.10191 84.5063C5.28612 84.6504 4.50804 84.1055 4.36424 83.2898C4.22032 82.4739 4.76512 81.6958 5.58092 81.552L12.967 80.2498L12.6197 78.28L5.23363 79.5823C4.41783 79.7263 3.63988 79.1814 3.49596 78.3657C3.35216 77.5498 3.89684 76.7717 4.71275 76.6279L12.0987 75.3257L10.015 63.5078L2.62889 64.8103C1.8131 64.9541 1.03514 64.4094 0.891221 63.5935C0.747422 62.7776 1.29222 61.9998 2.10802 61.856L9.494 60.5535L9.14671 58.584L1.76073 59.8862C0.94481 60.03 0.166856 59.4854 0.0230569 58.6694C-0.120864 57.8538 0.423936 57.0757 1.23973 56.9319L8.62584 55.6294L5.15282 35.9333L4.97923 34.9485L5.96397 34.7749L42.7772 28.2837ZM150.699 33.6912C150.87 33.166 151.434 32.8787 151.959 33.0493L158.416 35.1472C158.942 35.3179 159.229 35.8821 159.058 36.4075L128.132 131.589C127.382 133.897 124.903 135.16 122.594 134.41C120.286 133.66 119.023 131.181 119.773 128.873L147.272 44.2388L146.31 43.2771L138.077 68.6182C137.848 69.3218 137.092 69.7068 136.389 69.478C135.685 69.2495 135.3 68.4939 135.529 67.7903L144.323 40.7229C144.494 40.1975 145.058 39.9102 145.584 40.0808L146.229 40.2905L146.239 40.2939L146.271 40.2622L146.345 40.3364C146.562 40.438 146.728 40.6104 146.825 40.8162L148.002 41.9929L150.699 33.6912ZM44.0365 249.802L43.9565 244.802L42.2965 244.282L42.4565 243.062H47.6565C47.6432 243.062 47.6432 243.075 47.6565 243.102C47.6702 243.116 47.6838 243.138 47.6975 243.169C47.7106 243.199 47.7235 243.237 47.7366 243.282C47.7765 243.362 47.8165 243.462 47.8566 243.582C47.8915 243.675 47.9214 243.795 47.9462 243.942C47.9621 244.037 47.9761 244.143 47.9878 244.26C47.9994 244.377 48.009 244.504 48.0165 244.642L47.6019 244.707C47.1515 244.776 46.843 244.821 46.6765 244.842L46.6365 249.922C46.6098 252.469 46.1432 254.335 45.2366 255.522C44.3431 256.709 42.8098 257.302 40.6365 257.302C38.4631 257.302 36.9498 256.749 36.0965 255.642C35.2431 254.535 34.8032 252.749 34.7765 250.282C34.7599 248.736 34.7431 247.444 34.7265 246.406C34.7165 245.778 34.7065 245.244 34.6965 244.802L33.0365 244.282L33.1965 243.062H38.3965C38.3832 243.062 38.3832 243.075 38.3965 243.102C38.4089 243.115 38.4212 243.134 38.4337 243.161C38.448 243.191 38.4623 243.232 38.4765 243.282C38.4846 243.298 38.4927 243.315 38.5007 243.333C38.5326 243.403 38.5646 243.486 38.5965 243.582C38.6377 243.692 38.6717 243.838 38.6987 244.022C38.7242 244.195 38.7435 244.402 38.7565 244.642C38.0765 244.749 37.6299 244.815 37.4165 244.842L37.3566 249.922C37.3566 251.402 37.4365 252.455 37.5965 253.082C37.7565 253.695 37.9565 254.129 38.1965 254.382C38.7165 254.915 39.5432 255.182 40.6765 255.182C41.7699 255.182 42.5965 254.875 43.1565 254.262C43.6098 253.769 43.8832 252.902 43.9765 251.662C44.0165 251.169 44.0365 250.549 44.0365 249.802ZM65.8346 244.842L65.7746 257.062H63.2146L56.6146 246.302C56.5613 250.209 56.5279 253.155 56.5146 255.142L57.8946 255.322C57.8946 255.869 57.7413 256.449 57.4347 257.062H52.5746L52.3946 255.962C53.1413 255.655 53.7013 255.462 54.0746 255.382C54.0746 255.359 54.0539 254.134 54.0126 251.709L53.8946 244.802L52.2346 244.282L52.3946 243.062H57.5946L63.4147 253.502L63.1146 244.802L61.4546 244.282L61.6146 243.062H66.8147C66.8048 243.062 66.8022 243.069 66.8069 243.084C66.8086 243.089 66.8111 243.095 66.8147 243.102C66.8276 243.115 66.8406 243.136 66.8536 243.165C66.8673 243.195 66.881 243.234 66.8946 243.282C66.9347 243.362 66.9746 243.462 67.0146 243.582C67.0577 243.697 67.0931 243.853 67.1208 244.05C67.1346 244.148 67.1465 244.257 67.1565 244.376C67.1634 244.459 67.1695 244.548 67.1747 244.642C66.8069 244.7 66.5073 244.746 66.276 244.78C66.0797 244.809 65.9326 244.83 65.8346 244.842ZM77.7977 243.062C77.7844 243.062 77.7844 243.075 77.7977 243.102C77.8244 243.129 77.8511 243.189 77.8778 243.282C77.9177 243.362 77.9577 243.462 77.9978 243.582C78.0514 243.725 78.093 243.931 78.1225 244.199C78.1372 244.332 78.1489 244.479 78.1577 244.642C77.4778 244.749 77.0311 244.815 76.8177 244.842L76.7178 255.142L78.0978 255.322C78.0978 255.869 77.9444 256.449 77.6378 257.062H72.7777L72.5978 255.962C73.3445 255.655 73.9044 255.462 74.2777 255.382C74.2644 254.595 74.2444 253.489 74.2178 252.062C74.1777 248.862 74.1378 246.442 74.0978 244.802L72.4377 244.282L72.5978 243.062H77.7977ZM97.1354 244.842L97.0754 257.062H94.5154L87.9154 246.302C87.862 250.209 87.8287 253.155 87.8154 255.142L89.1954 255.322C89.1954 255.869 89.0421 256.449 88.7355 257.062H83.8754L83.6954 255.962C84.0666 255.81 84.3916 255.685 84.6705 255.589C84.9526 255.491 85.1876 255.422 85.3754 255.382C85.3754 255.342 85.3154 251.815 85.1954 244.802L83.5354 244.282L83.6954 243.062H88.8954L94.7154 253.502L94.4154 244.802L92.7554 244.282L92.9154 243.062H98.1155C98.102 243.062 98.102 243.075 98.1155 243.102C98.1289 243.115 98.1423 243.137 98.1557 243.168C98.1689 243.198 98.1821 243.236 98.1954 243.282C98.2355 243.362 98.2754 243.462 98.3154 243.582C98.3671 243.72 98.4077 243.917 98.4371 244.171C98.4532 244.311 98.466 244.468 98.4754 244.642C97.7954 244.749 97.3487 244.815 97.1354 244.842ZM109.239 255.182C111.452 255.182 112.559 253.482 112.559 250.082C112.559 246.682 111.452 244.982 109.239 244.982C108.279 244.982 107.439 245.129 106.718 245.422C106.105 246.702 105.799 248.189 105.799 249.882C105.799 251.562 106.052 252.869 106.559 253.802C107.065 254.722 107.958 255.182 109.239 255.182ZM109.239 242.822C111.465 242.822 113.032 243.409 113.939 244.582C114.845 245.742 115.299 247.522 115.299 249.922C115.299 251.429 115.105 252.715 114.718 253.782C114.332 254.849 113.679 255.702 112.759 256.342C111.838 256.982 110.665 257.302 109.239 257.302C107.065 257.302 105.485 256.695 104.499 255.482C103.525 254.269 103.039 252.502 103.039 250.182C103.039 245.275 105.105 242.822 109.239 242.822ZM120.308 246.702C120.094 245.782 119.988 245.055 119.988 244.522C119.988 243.989 120.008 243.502 120.048 243.062H131.668C131.721 243.702 131.748 244.135 131.748 244.362C131.748 244.935 131.641 245.715 131.428 246.702C131.268 246.746 131.066 246.781 130.821 246.807C130.475 246.844 130.044 246.862 129.528 246.862L129.068 244.842H127.368C127.354 245.349 127.294 248.782 127.188 255.142L128.628 255.322C128.628 255.935 128.474 256.515 128.168 257.062H123.308L123.128 255.962C124.048 255.615 124.628 255.422 124.868 255.382C124.868 255.329 124.788 251.822 124.628 244.862H122.648L122.208 246.822C121.421 246.822 120.788 246.782 120.308 246.702ZM140.99 245.062C140.99 246.582 140.976 247.889 140.95 248.982H142.99L143.19 247.602C143.87 247.602 144.53 247.769 145.17 248.102V252.102L143.85 252.162C143.53 251.682 143.343 251.262 143.29 250.902H140.93C140.903 252.769 140.89 254.175 140.89 255.122H144.31L144.75 253.382C145.576 253.382 146.203 253.422 146.63 253.502C146.83 254.262 146.93 254.955 146.93 255.582C146.93 255.831 146.926 256.061 146.92 256.27C146.91 256.576 146.893 256.84 146.87 257.062H136.95L136.77 255.962C137.258 255.774 137.649 255.631 137.942 255.532C138.17 255.455 138.339 255.405 138.45 255.382C138.436 254.595 138.423 253.489 138.41 252.062C138.356 248.862 138.31 246.442 138.27 244.802L136.61 244.282L136.77 243.062H146.59C146.63 243.422 146.65 243.875 146.65 244.422C146.65 244.68 146.626 244.989 146.579 245.347C146.529 245.728 146.453 246.167 146.35 246.662C145.936 246.795 145.31 246.862 144.47 246.862L144.01 245.062H140.99ZM58.5565 268.062H122.557V269.062H58.5565V268.062Z" fill="black"/>
</svg>
